<svg width="12" height="16" viewBox="0 0 12 16" fill="none" xmlns="http://www.w3.org/2000/svg">
<path d="M7.9952 1.33337H1.9952C1.64158 1.33337 1.30244 1.47385 1.05239 1.7239C0.802341 1.97395 0.661865 2.31309 0.661865 2.66671V13.3334C0.661865 13.687 0.802341 14.0261 1.05239 14.2762C1.30244 14.5262 1.64158 14.6667 1.9952 14.6667H9.9952C10.3488 14.6667 10.688 14.5262 10.938 14.2762C11.1881 14.0261 11.3285 13.687 11.3285 13.3334V4.66671L7.9952 1.33337Z" stroke="#94A3B8" stroke-width="1.33333" stroke-linecap="round" stroke-linejoin="round"/>
<path d="M7.32837 1.33337V4.00004C7.32837 4.35366 7.46885 4.6928 7.71889 4.94285C7.96894 5.1929 8.30808 5.33337 8.6617 5.33337H11.3284" stroke="#94A3B8" stroke-width="1.33333" stroke-linecap="round" stroke-linejoin="round"/>
<path d="M4.6617 6H3.32837" stroke="#94A3B8" stroke-width="1.33333" stroke-linecap="round" stroke-linejoin="round"/>
<path d="M8.6617 8.66663H3.32837" stroke="#94A3B8" stroke-width="1.33333" stroke-linecap="round" stroke-linejoin="round"/>
<path d="M8.6617 11.3334H3.32837" stroke="#94A3B8" stroke-width="1.33333" stroke-linecap="round" stroke-linejoin="round"/>
</svg>
