<svg width="65" height="80" viewBox="0 0 65 80" fill="none" xmlns="http://www.w3.org/2000/svg">
<g clip-path="url(#clip0_193_1908)">
<path d="M19.1667 8H11.1667C9.69391 8 8.5 9.19391 8.5 10.6667V18.6667C8.5 20.1394 9.69391 21.3333 11.1667 21.3333H19.1667C20.6394 21.3333 21.8333 20.1394 21.8333 18.6667V10.6667C21.8333 9.19391 20.6394 8 19.1667 8Z" stroke="#94A3B8" stroke-width="5.33333" stroke-linecap="round" stroke-linejoin="round"/>
<path d="M53.8334 8H45.8334C44.3607 8 43.1667 9.19391 43.1667 10.6667V18.6667C43.1667 20.1394 44.3607 21.3333 45.8334 21.3333H53.8334C55.3062 21.3333 56.5001 20.1394 56.5001 18.6667V10.6667C56.5001 9.19391 55.3062 8 53.8334 8Z" stroke="#94A3B8" stroke-width="5.33333" stroke-linecap="round" stroke-linejoin="round"/>
<path d="M19.1667 42.6667H11.1667C9.69391 42.6667 8.5 43.8607 8.5 45.3334V53.3334C8.5 54.8062 9.69391 56.0001 11.1667 56.0001H19.1667C20.6394 56.0001 21.8333 54.8062 21.8333 53.3334V45.3334C21.8333 43.8607 20.6394 42.6667 19.1667 42.6667Z" stroke="#94A3B8" stroke-width="5.33333" stroke-linecap="round" stroke-linejoin="round"/>
<path d="M56.5001 42.6667H48.5001C47.0856 42.6667 45.729 43.2287 44.7288 44.2288C43.7287 45.229 43.1667 46.5856 43.1667 48.0001V56.0001" stroke="#94A3B8" stroke-width="5.33333" stroke-linecap="round" stroke-linejoin="round"/>
<path d="M56.5 56V56.0267" stroke="#94A3B8" stroke-width="5.33333" stroke-linecap="round" stroke-linejoin="round"/>
<path d="M32.5001 18.6667V26.6667C32.5001 28.0812 31.9382 29.4378 30.938 30.438C29.9378 31.4382 28.5812 32.0001 27.1667 32.0001H19.1667" stroke="#94A3B8" stroke-width="5.33333" stroke-linecap="round" stroke-linejoin="round"/>
<path d="M8.5 32H8.52667" stroke="#94A3B8" stroke-width="5.33333" stroke-linecap="round" stroke-linejoin="round"/>
<path d="M32.5 8H32.5267" stroke="#94A3B8" stroke-width="5.33333" stroke-linecap="round" stroke-linejoin="round"/>
<path d="M32.5 42.6667V42.6934" stroke="#94A3B8" stroke-width="5.33333" stroke-linecap="round" stroke-linejoin="round"/>
<path d="M43.1667 32H45.8334" stroke="#94A3B8" stroke-width="5.33333" stroke-linecap="round" stroke-linejoin="round"/>
<path d="M56.5 32V32.0267" stroke="#94A3B8" stroke-width="5.33333" stroke-linecap="round" stroke-linejoin="round"/>
<path d="M32.5 55.9999V53.3333" stroke="#94A3B8" stroke-width="5.33333" stroke-linecap="round" stroke-linejoin="round"/>
</g>
<defs>
<clipPath id="clip0_193_1908">
<rect width="64" height="64" fill="white" transform="translate(0.5)"/>
</clipPath>
</defs>
</svg>
