<svg width="17" height="17" viewBox="0 0 17 17" fill="none" xmlns="http://www.w3.org/2000/svg">
<g clip-path="url(#clip0_10_446)">
<path d="M10.5 14.9166V12.2499C10.5928 11.4148 10.3533 10.5767 9.83334 9.91659C11.8333 9.91659 13.8333 8.58325 13.8333 6.24992C13.8867 5.41659 13.6533 4.59659 13.1667 3.91659C13.3533 3.14992 13.3533 2.34992 13.1667 1.58325C13.1667 1.58325 12.5 1.58325 11.1667 2.58325C9.40667 2.24992 7.59334 2.24992 5.83334 2.58325C4.5 1.58325 3.83334 1.58325 3.83334 1.58325C3.63334 2.34992 3.63334 3.14992 3.83334 3.91659C3.34792 4.59384 3.11232 5.41844 3.16667 6.24992C3.16667 8.58325 5.16667 9.91659 7.16667 9.91659C6.90667 10.2433 6.71334 10.6166 6.6 11.0166C6.48667 11.4166 6.45334 11.8366 6.5 12.2499V14.9166" stroke="#FAFAFA" stroke-width="1.33333" stroke-linecap="round" stroke-linejoin="round"/>
<path d="M6.49998 12.2501C3.49331 13.5834 3.16665 10.9167 1.83331 10.9167" stroke="#FAFAFA" stroke-width="1.33333" stroke-linecap="round" stroke-linejoin="round"/>
</g>
<defs>
<clipPath id="clip0_10_446">
<rect width="16" height="16" fill="white" transform="translate(0.5 0.25)"/>
</clipPath>
</defs>
</svg>
