<svg width="114" height="24" viewBox="0 0 114 24" fill="none" xmlns="http://www.w3.org/2000/svg">
<path d="M20.5 13C20.5 18 17 20.5 12.84 21.95C12.6222 22.0238 12.3855 22.0202 12.17 21.94C8 20.5 4.5 18 4.5 13V5.99996C4.5 5.73474 4.60536 5.48039 4.79289 5.29285C4.98043 5.10532 5.23478 4.99996 5.5 4.99996C7.5 4.99996 10 3.79996 11.74 2.27996C11.9519 2.09896 12.2214 1.99951 12.5 1.99951C12.7786 1.99951 13.0481 2.09896 13.26 2.27996C15.01 3.80996 17.5 4.99996 19.5 4.99996C19.7652 4.99996 20.0196 5.10532 20.2071 5.29285C20.3946 5.48039 20.5 5.73474 20.5 5.99996V13Z" stroke="#2563EB" stroke-width="2" stroke-linecap="round" stroke-linejoin="round"/>
<path d="M37.9034 13.9545H39.9943L41.0455 15.3068L42.0795 16.5114L44.0284 18.9545H41.733L40.392 17.3068L39.7045 16.3295L37.9034 13.9545ZM44.2045 12.1818C44.2045 13.4508 43.964 14.5303 43.483 15.4205C43.0057 16.3106 42.3542 16.9905 41.5284 17.4602C40.7064 17.9261 39.7822 18.1591 38.7557 18.1591C37.7216 18.1591 36.7936 17.9242 35.9716 17.4545C35.1496 16.9848 34.5 16.3049 34.0227 15.4148C33.5455 14.5246 33.3068 13.447 33.3068 12.1818C33.3068 10.9129 33.5455 9.83333 34.0227 8.94318C34.5 8.05303 35.1496 7.375 35.9716 6.90909C36.7936 6.43939 37.7216 6.20455 38.7557 6.20455C39.7822 6.20455 40.7064 6.43939 41.5284 6.90909C42.3542 7.375 43.0057 8.05303 43.483 8.94318C43.964 9.83333 44.2045 10.9129 44.2045 12.1818ZM41.7102 12.1818C41.7102 11.3598 41.5871 10.6667 41.3409 10.1023C41.0985 9.53788 40.7557 9.10985 40.3125 8.81818C39.8693 8.52652 39.3504 8.38068 38.7557 8.38068C38.161 8.38068 37.642 8.52652 37.1989 8.81818C36.7557 9.10985 36.411 9.53788 36.1648 10.1023C35.9223 10.6667 35.8011 11.3598 35.8011 12.1818C35.8011 13.0038 35.9223 13.697 36.1648 14.2614C36.411 14.8258 36.7557 15.2538 37.1989 15.5455C37.642 15.8371 38.161 15.983 38.7557 15.983C39.3504 15.983 39.8693 15.8371 40.3125 15.5455C40.7557 15.2538 41.0985 14.8258 41.3409 14.2614C41.5871 13.697 41.7102 13.0038 41.7102 12.1818ZM51.5781 14.2841V9.27273H53.9986V18H51.6747V16.4148H51.5838C51.3868 16.9261 51.0592 17.3371 50.6009 17.6477C50.1463 17.9583 49.5914 18.1136 48.9361 18.1136C48.3527 18.1136 47.8395 17.9811 47.3963 17.7159C46.9531 17.4508 46.6065 17.0739 46.3565 16.5852C46.1103 16.0966 45.9853 15.5114 45.9815 14.8295V9.27273H48.402V14.3977C48.4058 14.9129 48.544 15.3201 48.8168 15.6193C49.0895 15.9186 49.455 16.0682 49.9134 16.0682C50.205 16.0682 50.4777 16.0019 50.7315 15.8693C50.9853 15.733 51.1899 15.5322 51.3452 15.267C51.5043 15.0019 51.5819 14.6742 51.5781 14.2841ZM58.4233 18.1648C57.8665 18.1648 57.3703 18.0682 56.9347 17.875C56.4991 17.678 56.1544 17.3883 55.9006 17.0057C55.6506 16.6193 55.5256 16.1383 55.5256 15.5625C55.5256 15.0777 55.6146 14.6705 55.7926 14.3409C55.9706 14.0114 56.2131 13.7462 56.5199 13.5455C56.8267 13.3447 57.1752 13.1932 57.5653 13.0909C57.9593 12.9886 58.3722 12.9167 58.804 12.875C59.3116 12.822 59.7206 12.7727 60.0312 12.7273C60.3419 12.678 60.5672 12.6061 60.7074 12.5114C60.8475 12.4167 60.9176 12.2765 60.9176 12.0909V12.0568C60.9176 11.697 60.804 11.4186 60.5767 11.2216C60.3532 11.0246 60.035 10.9261 59.6222 10.9261C59.1866 10.9261 58.84 11.0227 58.5824 11.2159C58.3248 11.4053 58.1544 11.6439 58.071 11.9318L55.8324 11.75C55.946 11.2197 56.1695 10.7614 56.5028 10.375C56.8362 9.98485 57.2661 9.68561 57.7926 9.47727C58.3229 9.26515 58.9366 9.15909 59.6335 9.15909C60.1184 9.15909 60.5824 9.21591 61.0256 9.32955C61.4725 9.44318 61.8684 9.61932 62.2131 9.85795C62.5616 10.0966 62.8362 10.4034 63.0369 10.7784C63.2377 11.1496 63.3381 11.5947 63.3381 12.1136V18H61.0426V16.7898H60.9744C60.8343 17.0625 60.6468 17.303 60.4119 17.5114C60.1771 17.7159 59.8949 17.8769 59.5653 17.9943C59.2358 18.108 58.8551 18.1648 58.4233 18.1648ZM59.1165 16.4943C59.4725 16.4943 59.7869 16.4242 60.0597 16.2841C60.3324 16.1402 60.5464 15.947 60.7017 15.7045C60.857 15.4621 60.9347 15.1875 60.9347 14.8807V13.9545C60.8589 14.0038 60.7547 14.0492 60.6222 14.0909C60.4934 14.1288 60.3475 14.1648 60.1847 14.1989C60.0218 14.2292 59.8589 14.2576 59.696 14.2841C59.5331 14.3068 59.3854 14.3277 59.2528 14.3466C58.9688 14.3883 58.7206 14.4545 58.5085 14.5455C58.2964 14.6364 58.1316 14.7595 58.0142 14.9148C57.8968 15.0663 57.8381 15.2557 57.8381 15.483C57.8381 15.8125 57.9574 16.0644 58.196 16.2386C58.4384 16.4091 58.7453 16.4943 59.1165 16.4943ZM67.6364 6.36364V18H65.2159V6.36364H67.6364ZM69.5753 18V9.27273H71.9957V18H69.5753ZM70.7912 8.14773C70.4313 8.14773 70.1226 8.02841 69.8651 7.78977C69.6113 7.54735 69.4844 7.25758 69.4844 6.92045C69.4844 6.58712 69.6113 6.30114 69.8651 6.0625C70.1226 5.82008 70.4313 5.69886 70.7912 5.69886C71.151 5.69886 71.4579 5.82008 71.7116 6.0625C71.9692 6.30114 72.098 6.58712 72.098 6.92045C72.098 7.25758 71.9692 7.54735 71.7116 7.78977C71.4579 8.02841 71.151 8.14773 70.7912 8.14773ZM83.7131 6.36364V18H81.5881L76.5256 10.6761H76.4403V18H73.9801V6.36364H76.1392L81.1619 13.6818H81.2642V6.36364H83.7131ZM89.6435 18.1705C88.7609 18.1705 87.9976 17.983 87.3537 17.608C86.7135 17.2292 86.2192 16.7027 85.8707 16.0284C85.5223 15.3504 85.348 14.5644 85.348 13.6705C85.348 12.7689 85.5223 11.9811 85.8707 11.3068C86.2192 10.6288 86.7135 10.1023 87.3537 9.72727C87.9976 9.34848 88.7609 9.15909 89.6435 9.15909C90.526 9.15909 91.2874 9.34848 91.9276 9.72727C92.5715 10.1023 93.0677 10.6288 93.4162 11.3068C93.7647 11.9811 93.9389 12.7689 93.9389 13.6705C93.9389 14.5644 93.7647 15.3504 93.4162 16.0284C93.0677 16.7027 92.5715 17.2292 91.9276 17.608C91.2874 17.983 90.526 18.1705 89.6435 18.1705ZM89.6548 16.2955C90.0563 16.2955 90.3916 16.1818 90.6605 15.9545C90.9295 15.7235 91.1321 15.4091 91.2685 15.0114C91.4086 14.6136 91.4787 14.161 91.4787 13.6534C91.4787 13.1458 91.4086 12.6932 91.2685 12.2955C91.1321 11.8977 90.9295 11.5833 90.6605 11.3523C90.3916 11.1212 90.0563 11.0057 89.6548 11.0057C89.2495 11.0057 88.9086 11.1212 88.6321 11.3523C88.3594 11.5833 88.1529 11.8977 88.0128 12.2955C87.8764 12.6932 87.8082 13.1458 87.8082 13.6534C87.8082 14.161 87.8764 14.6136 88.0128 15.0114C88.1529 15.4091 88.3594 15.7235 88.6321 15.9545C88.9086 16.1818 89.2495 16.2955 89.6548 16.2955ZM103.368 9.27273L100.317 18H97.5895L94.5384 9.27273H97.0952L98.9077 15.517H98.9986L100.805 9.27273H103.368ZM106.861 18.1648C106.304 18.1648 105.808 18.0682 105.372 17.875C104.937 17.678 104.592 17.3883 104.338 17.0057C104.088 16.6193 103.963 16.1383 103.963 15.5625C103.963 15.0777 104.052 14.6705 104.23 14.3409C104.408 14.0114 104.651 13.7462 104.957 13.5455C105.264 13.3447 105.613 13.1932 106.003 13.0909C106.397 12.9886 106.81 12.9167 107.241 12.875C107.749 12.822 108.158 12.7727 108.469 12.7273C108.779 12.678 109.005 12.6061 109.145 12.5114C109.285 12.4167 109.355 12.2765 109.355 12.0909V12.0568C109.355 11.697 109.241 11.4186 109.014 11.2216C108.791 11.0246 108.473 10.9261 108.06 10.9261C107.624 10.9261 107.277 11.0227 107.02 11.2159C106.762 11.4053 106.592 11.6439 106.509 11.9318L104.27 11.75C104.384 11.2197 104.607 10.7614 104.94 10.375C105.274 9.98485 105.704 9.68561 106.23 9.47727C106.76 9.26515 107.374 9.15909 108.071 9.15909C108.556 9.15909 109.02 9.21591 109.463 9.32955C109.91 9.44318 110.306 9.61932 110.651 9.85795C110.999 10.0966 111.274 10.4034 111.474 10.7784C111.675 11.1496 111.776 11.5947 111.776 12.1136V18H109.48V16.7898H109.412C109.272 17.0625 109.084 17.303 108.849 17.5114C108.615 17.7159 108.332 17.8769 108.003 17.9943C107.673 18.108 107.293 18.1648 106.861 18.1648ZM107.554 16.4943C107.91 16.4943 108.224 16.4242 108.497 16.2841C108.77 16.1402 108.984 15.947 109.139 15.7045C109.295 15.4621 109.372 15.1875 109.372 14.8807V13.9545C109.296 14.0038 109.192 14.0492 109.06 14.0909C108.931 14.1288 108.785 14.1648 108.622 14.1989C108.459 14.2292 108.296 14.2576 108.134 14.2841C107.971 14.3068 107.823 14.3277 107.69 14.3466C107.406 14.3883 107.158 14.4545 106.946 14.5455C106.734 14.6364 106.569 14.7595 106.452 14.9148C106.334 15.0663 106.276 15.2557 106.276 15.483C106.276 15.8125 106.395 16.0644 106.634 16.2386C106.876 16.4091 107.183 16.4943 107.554 16.4943Z" fill="#FAFAFA"/>
</svg>
